<?xml version="1.0" standalone="no"?>
<!DOCTYPE svg PUBLIC "-//W3C//DTD SVG 20010904//EN"
 "http://www.w3.org/TR/2001/REC-SVG-20010904/DTD/svg10.dtd">
<svg version="1.0" xmlns="http://www.w3.org/2000/svg"
 width="512.000000pt" height="512.000000pt" viewBox="0 0 512.000000 512.000000"
 preserveAspectRatio="xMidYMid meet">
<metadata>
Created by potrace 1.14, written by Peter Selinger 2001-2017
</metadata>
<g transform="translate(0.000000,512.000000) scale(0.100000,-0.100000)"
fill="#000000" stroke="none">
<path d="M1036 5105 c-57 -20 -107 -65 -141 -126 l-30 -54 0 -750 0 -750 30
-55 c33 -60 96 -114 153 -130 20 -5 79 -10 130 -10 l92 0 0 -369 c0 -365 0
-368 23 -401 12 -19 38 -43 57 -54 34 -21 48 -21 652 -21 610 0 617 0 645 21
15 11 38 36 51 54 22 33 22 36 22 401 l0 369 380 0 380 0 0 -359 0 -359 -32
-11 c-99 -35 -135 -100 -144 -263 l-7 -116 -38 -12 -38 -13 -78 70 c-96 87
-132 106 -199 106 -94 0 -199 -75 -245 -176 -42 -93 -22 -159 81 -276 l80 -91
-14 -35 c-8 -19 -19 -35 -23 -36 -4 0 -57 -4 -118 -8 -125 -9 -178 -29 -218
-83 -35 -48 -47 -91 -47 -173 0 -58 5 -81 28 -126 42 -84 109 -119 227 -119
108 0 135 -9 151 -47 l14 -33 -80 -91 c-103 -117 -123 -183 -81 -276 47 -102
150 -176 246 -175 68 0 102 19 198 105 l78 70 38 -13 38 -12 7 -117 c7 -136
28 -189 92 -233 82 -58 236 -58 318 0 64 44 85 97 92 233 l7 117 38 12 38 13
78 -70 c96 -86 130 -105 198 -105 96 -1 199 73 246 175 42 93 22 159 -81 276
l-80 91 14 35 c8 19 19 35 23 36 4 0 59 4 121 8 98 7 118 12 160 37 69 42 102
112 102 214 0 64 -5 86 -27 131 -43 84 -110 119 -228 119 -108 0 -135 9 -151
47 l-14 33 80 91 c103 117 123 183 81 276 -46 101 -151 176 -245 176 -67 0
-103 -19 -199 -106 l-78 -70 -38 13 -38 12 -7 116 c-9 163 -45 228 -144 263
l-32 11 0 359 0 359 203 0 c111 0 219 5 239 10 62 18 120 69 153 135 l30 60 0
740 0 740 -30 60 c-33 66 -91 117 -153 135 -24 6 -432 10 -1208 10 -1130 0
-1173 -1 -1195 -19 -32 -26 -32 -86 0 -112 22 -18 65 -19 1188 -19 1253 0
1205 2 1233 -49 14 -27 14 -1465 0 -1492 -27 -49 -23 -49 -720 -49 l-650 0 0
29 c0 38 -37 90 -80 112 -33 18 -70 19 -643 19 -541 0 -613 -2 -643 -16 -42
-20 -73 -62 -81 -109 l-6 -35 -84 0 c-89 0 -134 14 -153 49 -14 27 -14 1465 0
1492 22 40 60 49 220 49 147 0 152 1 175 25 14 13 25 36 25 50 0 14 -11 37
-25 50 -24 25 -27 25 -187 25 -112 -1 -175 -5 -202 -15z m1534 -2139 l0 -424
-232 -7 c-128 -3 -386 -5 -573 -3 l-340 3 -3 428 -2 427 575 0 575 0 0 -424z
m1064 -628 c8 -13 16 -56 18 -95 l4 -73 -101 0 -101 0 4 73 c6 103 17 117 97
117 56 0 66 -3 79 -22z m-611 -271 l59 -52 -71 -71 -71 -71 -39 42 c-61 66
-73 89 -62 117 13 33 77 88 104 88 12 0 47 -23 80 -53z m1203 21 c68 -60 66
-83 -17 -173 l-39 -42 -71 71 -71 71 59 52 c33 30 68 53 80 53 12 0 39 -14 59
-32z m-500 -99 c213 -65 369 -229 424 -445 82 -319 -121 -657 -445 -739 -69
-18 -211 -20 -287 -4 -29 6 -91 29 -138 52 -147 72 -257 203 -316 377 -14 41
-19 84 -19 170 0 86 5 129 19 170 71 209 212 352 410 416 98 32 254 33 352 3z
m-941 -590 l0 -102 -79 6 c-93 6 -107 17 -113 84 -7 88 19 109 137 112 l55 1
0 -101z m1714 76 c22 -22 22 -128 0 -151 -11 -11 -42 -17 -95 -21 l-79 -6 0
103 0 103 79 -7 c52 -4 85 -11 95 -21z m-1476 -742 c-33 -30 -68 -53 -80 -53
-27 0 -91 55 -104 88 -11 28 1 51 62 117 l39 42 71 -71 71 -71 -59 -52z m1232
97 c21 -30 24 -42 16 -62 -13 -33 -77 -88 -104 -88 -12 0 -47 23 -81 53 l-58
52 68 70 69 70 32 -29 c18 -17 44 -46 58 -66z m-599 -216 c-3 -9 -6 -42 -6
-75 0 -79 -19 -99 -95 -99 -76 0 -95 20 -95 99 0 33 -3 66 -6 75 -5 14 7 16
101 16 94 0 106 -2 101 -16z"/>
<path d="M2125 3037 l-150 -154 -102 93 c-82 75 -109 94 -133 94 -40 0 -70
-31 -70 -73 0 -28 13 -45 93 -123 150 -147 184 -174 214 -174 23 0 52 24 149
123 247 252 257 264 250 300 -7 39 -39 67 -75 67 -21 0 -56 -31 -176 -153z"/>
<path d="M3501 1721 c-12 -12 -21 -30 -21 -40 0 -13 -18 -29 -54 -50 -30 -17
-67 -46 -81 -66 -20 -25 -35 -35 -54 -35 -17 0 -37 -10 -52 -26 -21 -23 -24
-35 -24 -107 0 -67 5 -92 27 -138 34 -75 95 -134 175 -171 59 -28 70 -30 151
-26 69 4 98 10 140 32 70 35 128 95 161 165 22 47 26 70 26 141 0 71 -4 94
-27 142 -53 113 -160 188 -279 196 -58 4 -70 1 -88 -17z"/>
<path d="M1282 4577 c-29 -31 -29 -77 1 -105 19 -18 35 -22 95 -22 l72 0 0
-329 0 -330 26 -20 c35 -28 69 -26 99 4 l25 24 0 326 0 325 69 0 c85 0 121 22
121 75 0 24 -7 39 -26 54 -25 20 -39 21 -244 21 -213 0 -217 0 -238 -23z"/>
<path d="M2625 4575 c-46 -45 -43 -51 117 -277 l69 -98 -115 -163 c-141 -201
-143 -205 -122 -245 20 -39 59 -51 95 -31 14 8 71 79 126 157 55 78 103 142
107 142 3 0 54 -67 113 -150 76 -108 113 -152 131 -156 57 -14 108 41 88 94
-6 15 -61 99 -123 186 -67 94 -110 165 -106 173 3 8 45 72 94 142 115 164 116
166 100 202 -22 55 -80 65 -121 22 -14 -16 -59 -76 -100 -135 l-75 -108 -91
129 c-50 71 -98 131 -107 135 -31 12 -56 6 -80 -19z"/>
<path d="M3356 4579 c-36 -28 -36 -80 0 -108 21 -17 41 -21 95 -21 l69 0 0
-325 0 -326 25 -24 c13 -14 36 -25 50 -25 14 0 37 11 50 25 l25 24 0 326 0
325 73 0 c64 0 76 3 95 23 29 31 29 77 -1 105 -22 21 -31 22 -239 22 -203 0
-217 -1 -242 -21z"/>
<path d="M2001 4564 c-20 -26 -21 -38 -21 -396 l0 -369 25 -24 c24 -25 27 -25
193 -25 156 0 171 2 196 21 36 28 36 80 0 108 -24 19 -40 21 -145 21 l-119 0
0 100 0 100 115 0 c105 0 116 2 135 22 25 27 26 69 1 99 -18 22 -27 24 -135
27 l-116 4 0 93 0 93 124 4 c105 2 127 6 145 22 27 25 28 79 1 106 -19 19 -33
20 -199 20 l-180 0 -20 -26z"/>
<path d="M1275 1888 c-86 -31 -135 -103 -143 -208 l-5 -69 -46 39 c-85 72
-175 89 -256 50 -52 -25 -160 -136 -180 -184 -19 -45 -19 -117 0 -162 8 -20
33 -57 55 -84 l40 -47 -69 -5 c-51 -4 -82 -12 -115 -32 -81 -47 -106 -104
-106 -241 0 -80 3 -98 28 -146 37 -74 96 -110 192 -117 l70 -5 -40 -47 c-22
-27 -47 -64 -55 -84 -19 -45 -19 -117 0 -162 20 -48 128 -159 180 -184 81 -39
171 -22 256 50 l46 39 5 -70 c7 -95 43 -154 117 -191 48 -25 66 -28 151 -28
85 0 103 3 151 28 74 37 110 96 117 192 l5 70 47 -40 c60 -50 107 -70 165 -70
66 0 108 21 180 91 75 72 105 127 105 192 0 60 -19 107 -70 167 l-40 47 70 5
c96 7 155 43 193 117 24 48 27 66 27 151 0 85 -3 103 -27 151 -38 74 -97 110
-193 117 l-70 5 40 47 c50 60 70 107 70 165 0 66 -21 108 -91 180 -72 75 -127
105 -192 105 -60 0 -107 -19 -167 -70 l-47 -40 -5 70 c-7 96 -43 155 -117 193
-49 24 -65 27 -150 26 -53 0 -109 -5 -126 -11z m224 -164 c15 -19 21 -41 21
-78 l0 -51 -120 0 -120 0 0 51 c0 37 6 59 21 78 19 24 26 26 99 26 73 0 80 -2
99 -26z m-511 -193 l44 -38 -88 -87 -87 -88 -38 44 c-54 62 -52 86 15 154 68
67 92 69 154 15z m978 -15 c65 -66 67 -86 18 -149 -20 -26 -38 -47 -40 -47 -1
0 -42 39 -89 87 l-87 86 44 38 c62 54 86 52 154 -15z m-421 -93 c70 -22 112
-45 172 -92 184 -147 231 -427 108 -638 -33 -55 -113 -135 -168 -168 -155 -90
-360 -92 -506 -3 -174 106 -269 299 -242 491 44 307 345 501 636 410z m-790
-473 l0 -120 -51 0 c-37 0 -59 6 -78 21 -24 19 -26 26 -26 99 0 73 2 80 26 99
19 15 41 21 78 21 l51 0 0 -120z m1419 99 c24 -19 26 -26 26 -99 0 -73 -2 -80
-26 -99 -19 -15 -41 -21 -78 -21 l-51 0 0 120 0 120 51 0 c37 0 59 -6 78 -21z
m-1230 -555 c47 -47 86 -87 86 -88 0 -12 -98 -76 -115 -76 -14 0 -45 22 -79
55 -68 67 -71 88 -19 151 21 24 38 44 39 44 2 0 41 -39 88 -86z m1039 42 c52
-62 49 -85 -17 -152 -66 -65 -86 -67 -149 -18 -26 20 -47 38 -47 40 0 4 164
172 170 173 3 1 22 -19 43 -43z m-463 -282 c0 -37 -6 -59 -21 -78 -19 -24 -26
-26 -99 -26 -73 0 -80 2 -99 26 -15 19 -21 41 -21 78 l0 51 120 0 120 0 0 -51z"/>
<path d="M1343 1240 c-229 -46 -315 -329 -151 -497 182 -186 501 -54 501 207
0 184 -170 326 -350 290z"/>
</g>
</svg>
